<svg width="128" height="128" version="1.1" xmlns="http://www.w3.org/2000/svg"><path fill="rgb(249,250,249)" stroke="rgb(249,250,249)" stroke-width="1" opacity="1" d="M 36.5 11 L 44.5 12 L 46.5 11 L 55.5 13 L 57.5 13 L 60.5 14 Q 62 10.5 63.5 13 L 69.5 11 L 69.5 13 L 75 12.5 L 73 11.5 L 75.5 11 L 77.5 11 L 82.5 12 L 84.5 12 L 94.5 11 L 103 13 Q 101.8 16 105.5 15 L 110 20.5 L 110 22.5 L 112 27.5 L 112 37.5 L 109.5 42 L 108 39.5 L 111 37.5 L 108 36 L 107.5 38 L 101 26.5 L 96.5 22 L 87.5 18 L 70.5 14 L 69.5 15 L 59.5 15 L 57.5 14 L 54.5 15 Q 53 12.5 51.5 16 Q 45.5 15 43.5 18 L 41.5 18 L 36.5 20 L 35 19.5 Q 35.8 21.8 33.5 21 L 32.5 22 L 30 20.5 L 31 24 L 28 25.5 L 22 34.5 L 21 40 L 19 40.5 L 20 42.5 L 18 42.5 L 16.5 48 L 15 36.5 L 18 22.5 L 25.5 14 L 36.5 11 Z M 100 22 L 100 24 Q 99 26 102 25 L 101 24 Q 102 21 100 22 Z "></path><path fill="rgb(249,250,249)" stroke="rgb(249,250,249)" stroke-width="1" opacity="1" d="M 31.5 25 L 33 25.5 L 30 27.5 L 29.5 30 L 29 27.5 L 31.5 25 Z "></path><path fill="rgb(249,250,249)" stroke="rgb(249,250,249)" stroke-width="1" opacity="1" d="M 93.5 25 Q 98.3 24.3 99 27.5 L 98.5 31 L 96.5 26 Q 92.5 26.8 93.5 25 Z "></path><path fill="rgb(249,250,249)" stroke="rgb(249,250,249)" stroke-width="1" opacity="1" d="M 90.5 28 L 93 28.5 L 90.5 29 L 90.5 28 Z "></path><path fill="rgb(249,250,249)" stroke="rgb(249,250,249)" stroke-width="1" opacity="1" d="M 17.5 67 L 20 72.5 L 19 74.5 L 22 82.5 L 25 85.5 L 23 86 L 20 81.5 Q 22.5 80 19 78.5 L 17 71.5 L 17.5 67 Z "></path><path fill="rgb(249,250,249)" stroke="rgb(249,250,249)" stroke-width="1" opacity="1" d="M 109.5 73 L 110 74.5 L 108.5 77 L 108 75.5 L 109.5 73 Z "></path><path fill="rgb(249,250,249)" stroke="rgb(249,250,249)" stroke-width="1" opacity="1" d="M 107.5 79 L 108 80.5 L 106.5 83 L 106 81.5 L 107.5 79 Z "></path><path fill="rgb(249,250,249)" stroke="rgb(249,250,249)" stroke-width="1" opacity="1" d="M 29.5 83 L 30 85.5 L 29 85.5 L 29.5 83 Z "></path><path fill="rgb(249,250,249)" stroke="rgb(249,250,249)" stroke-width="1" opacity="1" d="M 16 84 Q 19.7 82.7 18 88.5 L 16 87.5 L 16 84 Z "></path><path fill="rgb(249,250,249)" stroke="rgb(249,250,249)" stroke-width="1" opacity="1" d="M 105.5 84 L 106 85.5 L 97.5 95 L 90.5 98 L 90.5 97 Q 92.8 97.8 92 95.5 L 94.5 95 L 104 86.5 L 103.5 85 L 105.5 84 Z "></path><path fill="rgb(249,250,249)" stroke="rgb(249,250,249)" stroke-width="1" opacity="1" d="M 24.5 87 L 25.5 89 L 24.5 87 Z "></path><path fill="rgb(249,250,249)" stroke="rgb(249,250,249)" stroke-width="1" opacity="1" d="M 18.5 90 L 19 94 L 24 96 Q 25.1 98.7 22.5 98 L 19 97 L 18.5 90 Z "></path><path fill="rgb(249,250,249)" stroke="rgb(249,250,249)" stroke-width="1" opacity="1" d="M 111.5 90 L 112 94.5 Q 108.7 100.2 101.5 102 L 102.5 100 L 104 99.5 L 102 98.5 L 103.5 98 L 107 98.5 L 106.5 96 L 105 96.5 L 107.5 93 Q 109.3 95.7 111 91.5 L 111.5 90 Z "></path><path fill="rgb(249,250,249)" stroke="rgb(249,250,249)" stroke-width="1" opacity="1" d="M 16.5 91 L 17 93.5 L 16 93.5 L 16.5 91 Z "></path><path fill="rgb(249,250,249)" stroke="rgb(249,250,249)" stroke-width="1" opacity="1" d="M 21.5 91 L 23.5 94 L 21 93 L 21.5 91 Z "></path><path fill="rgb(249,250,249)" stroke="rgb(249,250,249)" stroke-width="1" opacity="1" d="M 28.5 91 Q 30.8 90.3 30 92.5 L 35 96.5 L 33.5 96 L 28.5 91 Z "></path><path fill="rgb(249,250,249)" stroke="rgb(249,250,249)" stroke-width="1" opacity="1" d="M 103.5 94 L 102.5 96 L 103.5 94 Z "></path><path fill="rgb(249,250,249)" stroke="rgb(249,250,249)" stroke-width="1" opacity="1" d="M 97.5 98 L 100 98.5 L 96.5 100 L 97.5 98 Z "></path><path fill="rgb(249,250,249)" stroke="rgb(249,250,249)" stroke-width="1" opacity="1" d="M 49.5 100 L 54 102.5 Q 53.1 105.5 57.5 104 L 59 104.5 L 60.5 101 Q 68.5 99.5 70 104.5 L 71 108.5 L 68 110.5 L 69 107.5 Q 69.8 102.8 66.5 102 L 60 102 L 60 114 Q 64.5 115.8 63 110.5 L 66 112.5 Q 65.2 115.1 68.5 114 L 68.5 115 L 65 113.5 L 64.5 112 L 62.5 115 L 59 113.5 Q 60.7 106.7 57.5 105 L 53 105 Q 54.5 100.5 50 102 L 49.5 111 Q 50.1 106.4 47.5 105 Q 42.1 104.4 40 106 L 40.5 109 L 42 108.5 L 41 112.5 Q 41.8 114.8 45.5 114 L 47.5 114 L 49 114.5 L 47.5 115 L 45.5 115 Q 41.3 115.8 40.5 113 L 36.5 115 L 35 113.5 L 35 106 L 33 105.5 L 36 105 L 36 114 L 39 114 L 39 105.5 L 41.5 105 Q 42.8 102.8 47.5 104 L 49 104.5 L 50 101.5 L 49.5 100 Z "></path><path fill="rgb(249,250,249)" stroke="rgb(249,250,249)" stroke-width="1" opacity="1" d="M 33.5 101 L 42 101.5 L 33.5 102 L 33.5 101 Z "></path><path fill="rgb(249,250,249)" stroke="rgb(249,250,249)" stroke-width="1" opacity="1" d="M 74.5 101 L 77 101.5 L 74.5 102 L 74.5 101 Z "></path><path fill="rgb(249,250,249)" stroke="rgb(249,250,249)" stroke-width="1" opacity="1" d="M 87.5 101 L 91 102.5 L 91.5 105 L 94.5 104 L 96 106.5 L 94 109.5 L 97 113.5 L 95 112.5 L 93 108.5 L 95 105 Q 91.6 104.3 90.5 107 L 90 102 Q 85.1 100.2 87 106.5 L 86 106.5 Q 85 102 87.5 101 Z "></path><path fill="rgb(249,250,249)" stroke="rgb(249,250,249)" stroke-width="1" opacity="1" d="M 71.5 104 Q 76.8 103.2 78.5 106 Q 79.5 103 84.5 104 L 84.5 105 Q 79.2 104.2 77.5 107 Q 76.5 104 71.5 105 L 71.5 104 Z "></path><path fill="rgb(249,250,249)" stroke="rgb(249,250,249)" stroke-width="1" opacity="1" d="M 63 105 Q 66.7 103.5 66 106.5 L 63 106.5 L 63 105 Z "></path><path fill="rgb(249,250,249)" stroke="rgb(249,250,249)" stroke-width="1" opacity="1" d="M 53.5 108 L 54.5 110 L 55.5 108 L 56 111 Q 51.3 112.5 53.5 108 Z "></path><path fill="rgb(249,250,249)" stroke="rgb(249,250,249)" stroke-width="1" opacity="1" d="M 81 108 L 87 108 L 87 110.5 L 86 110.5 L 85.5 109 L 82.5 111 L 81 108 Z "></path><path fill="rgb(249,250,249)" stroke="rgb(249,250,249)" stroke-width="1" opacity="1" d="M 72.5 110 L 75 110.5 L 72.5 111 L 72.5 110 Z "></path><path fill="rgb(249,250,249)" stroke="rgb(249,250,249)" stroke-width="1" opacity="1" d="M 78.5 111 L 80 113.5 L 76.5 115 L 76.5 114 Q 79.4 114.7 78.5 111 Z "></path><path fill="rgb(249,250,249)" stroke="rgb(249,250,249)" stroke-width="1" opacity="1" d="M 90.5 111 Q 94 113 89.5 115 L 85.5 114 L 81.5 115 L 81.5 114 Q 85.8 114.8 86.5 112 L 87 114 Q 91.3 115.5 90.5 111 Z "></path><path fill="rgb(249,250,249)" stroke="rgb(249,250,249)" stroke-width="1" opacity="1" d="M 69.5 112 L 74 114.5 L 71.5 115 L 69.5 112 Z "></path><path fill="rgb(249,250,249)" stroke="rgb(249,250,249)" stroke-width="1" opacity="1" d="M 57.5 113 L 56.5 115 L 50 114.5 L 57.5 113 Z "></path><path fill="rgb(249,250,249)" stroke="rgb(249,250,249)" stroke-width="1" opacity="1" d="M 120.5 119 L 123 120.5 L 121.5 123 L 119 121.5 L 120.5 119 Z "></path><path fill="rgb(248,249,243)" stroke="rgb(248,249,243)" stroke-width="1" opacity="1" d="M 8.5 2 L 10.5 3 Q 12 0.5 17.5 2 L 23 4 L 19 9.5 L 19 12 Q 16.3 10.9 17 13.5 L 16 16 L 13 17.5 L 15 23 L 12 24.5 L 12 29 Q 14.7 27.9 14 30.5 L 15 33.5 L 14 33.5 L 12.5 30 L 11 33.5 L 11 47.5 L 10 48.5 L 11 52.5 Q 8.5 54 10 59.5 L 11 60.5 L 11 71.5 L 12 72.5 Q 9.7 73.8 11 78.5 L 13.5 83 Q 16.5 82.1 15 86.5 L 14 89.5 L 15 91.5 L 13 97.5 L 15.5 101 L 16.5 100 L 19.5 103 L 27 106 Q 25.9 108.7 28.5 108 L 34 109 Q 33 113.3 36 114.5 Q 33.2 116.2 37.5 118 L 39.5 119 L 41.5 119 L 46.5 120 L 49.5 119 Q 51.3 121.8 57.5 120 L 59.5 120 L 61.5 119 L 63.5 120 Q 65.3 117.3 71.5 119 L 76.5 121 L 82.5 119 L 84.5 119 L 92.5 119 L 93 117.5 L 92 115 L 90 114.5 L 91.5 114 L 94.5 116 L 97 113.5 L 96 110.5 Q 95.1 107.5 99.5 109 L 112 100.5 L 113 93.5 L 112 91.5 L 113 88.5 L 112.5 86 L 110.5 87 L 111 85.5 L 112 83.5 L 110.5 81 L 109.5 83 L 109 81.5 L 112 80.5 L 113 76.5 L 111 72.5 L 111.5 67 L 114 70.5 L 113 75.5 L 115 79.5 L 114 84.5 L 114 86.5 Q 112.5 92.5 115.5 94 Q 117.8 94.8 117 92.5 L 118 88.5 L 116 85.5 L 116 83.5 L 116.5 80 L 117.5 82 L 119 64.5 L 118 63.5 L 118 55.5 L 119 52.5 L 117 43.5 Q 119.3 42.2 118 37.5 L 116.5 35 Q 119.5 35.5 118 28.5 L 116 24.5 Q 120.5 22 115 19.5 L 114 12.5 L 112.5 11 L 111 10.5 L 112.5 8 L 108 5.5 L 112.5 3 L 122.5 2 L 125 3 L 126 5.5 L 126 7.5 Q 124.1 12.9 127.5 12 L 127.5 13 Q 124.5 12.1 126 16.5 L 127 16.5 L 127.5 14 L 128 23.5 L 125 24.5 Q 124.3 29.3 126.5 31 L 127.5 28 L 128 36.5 L 127 38.5 Q 129.8 40.3 128 46.5 L 127 46.5 L 126.5 45 L 125 47.5 L 126 50 L 123 51.5 L 125 59.5 L 124.5 61 Q 128.3 62.3 127 58.5 L 128 58.5 L 127.5 64 Q 126.2 61.8 125 64.5 L 125 66.5 Q 124.3 69.1 127 68 L 127.5 65 L 128 70 L 125 70.5 L 126 73 Q 128.7 71.9 128 74.5 L 126.5 74 Q 123.9 73.2 125 76.5 L 125 78.5 L 125 81.5 L 128 87.5 L 128 89.5 L 128 125.5 L 126.5 126 L 126.5 127 L 128 127.5 L 85.5 128 L 83.5 128 L 3.5 128 L 3 126.5 L 2 125.5 L 2 119 L 0 118.5 L 1 115.5 L 0 114.5 L 0 106.5 L 0 104.5 Q 3.6 101.6 2 93.5 L 1 91.5 L 2 90.5 L 2 74.5 L 0 74.5 L 0 72.5 L 1 70.5 L 0 67.5 L 1 67.5 L 1.5 69 L 2 56.5 L 0 56.5 L 0.5 51 L 1.5 54 Q 4.3 52.8 2 51.5 L 3 46.5 L 2 44.5 L 3 43.5 L 0.5 40 Q 3.5 40.9 2 36.5 L 1 34.5 L 2 33.5 L 2 24.5 L 0 24.5 L 1 22.5 L 0 18.5 L 2 16.5 L 2 6.5 L 5.5 3 L 8.5 2 Z M 120 118 Q 121 121 118 120 L 120 124 L 124 122 L 122 118 L 120 118 Z "></path><path fill="rgb(248,249,243)" stroke="rgb(248,249,243)" stroke-width="1" opacity="1" d="M 127.5 6 L 128 10.5 L 127 10.5 L 127.5 6 Z "></path><path fill="rgb(248,249,243)" stroke="rgb(248,249,243)" stroke-width="1" opacity="1" d="M 0.5 7 L 1 9.5 L 0 9.5 L 0.5 7 Z "></path><path fill="rgb(248,249,243)" stroke="rgb(248,249,243)" stroke-width="1" opacity="1" d="M 54.5 10 L 59 11.5 L 57.5 12 L 54.5 11 L 54.5 10 Z "></path><path fill="rgb(248,249,243)" stroke="rgb(248,249,243)" stroke-width="1" opacity="1" d="M 61.5 10 L 67 10.5 L 62.5 12 L 61.5 10 Z "></path><path fill="rgb(248,249,243)" stroke="rgb(248,249,243)" stroke-width="1" opacity="1" d="M 108.5 17 L 109.5 19 L 108.5 17 Z "></path><path fill="rgb(248,249,243)" stroke="rgb(248,249,243)" stroke-width="1" opacity="1" d="M 112.5 21 L 115 21.5 L 112.5 22 L 112.5 21 Z "></path><path fill="rgb(248,249,243)" stroke="rgb(248,249,243)" stroke-width="1" opacity="1" d="M 112.5 24 L 113 26.5 L 112 26.5 L 112.5 24 Z "></path><path fill="rgb(248,249,243)" stroke="rgb(248,249,243)" stroke-width="1" opacity="1" d="M 112.5 33 L 114 38.5 L 112 37.5 L 112.5 33 Z "></path><path fill="rgb(248,249,243)" stroke="rgb(248,249,243)" stroke-width="1" opacity="1" d="M 14.5 39 L 16 41.5 L 14.5 46 L 14 42.5 L 15 40.5 L 14.5 39 Z "></path><path fill="rgb(248,249,243)" stroke="rgb(248,249,243)" stroke-width="1" opacity="1" d="M 113.5 41 L 114 43.5 L 113.5 47 L 112.5 45 Q 111.2 47.3 110 44.5 L 112 44 L 113.5 41 Z "></path><path fill="rgb(248,249,243)" stroke="rgb(248,249,243)" stroke-width="1" opacity="1" d="M 111.5 47 L 114 49.5 L 114 66 L 111 65.5 L 113 64.5 L 113 62.5 L 112 58.5 L 113 55.5 L 111 51.5 L 113 51.5 Q 113.7 48.9 111 50 L 111.5 47 Z "></path><path fill="rgb(248,249,243)" stroke="rgb(248,249,243)" stroke-width="1" opacity="1" d="M 14 48 L 17 48.5 L 14.5 50 L 14 48 Z "></path><path fill="rgb(248,249,243)" stroke="rgb(248,249,243)" stroke-width="1" opacity="1" d="M 14.5 51 Q 17.3 52.3 15 53.5 Q 13.5 61 16 64.5 L 14 65.5 L 14 53.5 L 15 52.5 L 14.5 51 Z "></path><path fill="rgb(248,249,243)" stroke="rgb(248,249,243)" stroke-width="1" opacity="1" d="M 16.5 66 L 15.5 68 L 16.5 66 Z "></path><path fill="rgb(248,249,243)" stroke="rgb(248,249,243)" stroke-width="1" opacity="1" d="M 16.5 69 L 17 70.5 L 15 71.5 L 16.5 69 Z "></path><path fill="rgb(248,249,243)" stroke="rgb(248,249,243)" stroke-width="1" opacity="1" d="M 116.5 73 L 117 74.5 L 116.5 77 Q 114.3 77.8 115 75.5 L 116.5 73 Z "></path><path fill="rgb(248,249,243)" stroke="rgb(248,249,243)" stroke-width="1" opacity="1" d="M 16.5 74 L 17 75.5 L 16 78 L 14 77.5 L 16.5 74 Z "></path><path fill="rgb(248,249,243)" stroke="rgb(248,249,243)" stroke-width="1" opacity="1" d="M 127.5 76 L 128 82.5 L 127 82.5 L 127.5 76 Z "></path><path fill="rgb(248,249,243)" stroke="rgb(248,249,243)" stroke-width="1" opacity="1" d="M 23.5 88 L 22.5 90 L 23.5 88 Z "></path><path fill="rgb(248,249,243)" stroke="rgb(248,249,243)" stroke-width="1" opacity="1" d="M 23.5 91 L 26.5 95 L 23.5 91 Z "></path><path fill="rgb(248,249,243)" stroke="rgb(248,249,243)" stroke-width="1" opacity="1" d="M 28.5 95 L 29.5 97 L 28.5 95 Z "></path><path fill="rgb(248,249,243)" stroke="rgb(248,249,243)" stroke-width="1" opacity="1" d="M 31.5 97 L 34 98.5 L 32.5 98 L 31.5 97 Z "></path><path fill="rgb(248,249,243)" stroke="rgb(248,249,243)" stroke-width="1" opacity="1" d="M 41.5 99 L 44 100 L 45 102.5 L 43.5 102 Q 41.3 102.8 42 100.5 L 41.5 99 Z "></path><path fill="rgb(248,249,243)" stroke="rgb(248,249,243)" stroke-width="1" opacity="1" d="M 89.5 99 L 92 99.5 L 89.5 100 L 89.5 99 Z "></path><path fill="rgb(248,249,243)" stroke="rgb(248,249,243)" stroke-width="1" opacity="1" d="M 82.5 101 L 81.5 103 L 82.5 101 Z "></path><path fill="rgb(248,249,243)" stroke="rgb(248,249,243)" stroke-width="1" opacity="1" d="M 71.5 102 L 73 102.5 L 71 103 L 70.5 105 L 70 103.5 L 71.5 102 Z "></path><path fill="rgb(248,249,243)" stroke="rgb(248,249,243)" stroke-width="1" opacity="1" d="M 95.5 104 L 96.5 106 L 95.5 104 Z "></path><path fill="rgb(248,249,243)" stroke="rgb(248,249,243)" stroke-width="1" opacity="1" d="M 58.5 113 L 60.5 116 L 58.5 113 Z "></path><path fill="rgb(248,249,243)" stroke="rgb(248,249,243)" stroke-width="1" opacity="1" d="M 39.5 114 L 38.5 116 L 39.5 114 Z "></path><path fill="rgb(248,249,243)" stroke="rgb(248,249,243)" stroke-width="1" opacity="1" d="M 63.5 114 L 62.5 116 L 63.5 114 Z "></path><path fill="rgb(248,249,243)" stroke="rgb(248,249,243)" stroke-width="1" opacity="1" d="M 65.5 114 L 66.5 116 L 65.5 114 Z "></path><path fill="rgb(248,249,243)" stroke="rgb(248,249,243)" stroke-width="1" opacity="1" d="M 86.5 114 L 87.5 116 L 86.5 114 Z "></path><path fill="rgb(248,249,243)" stroke="rgb(248,249,243)" stroke-width="1" opacity="1" d="M 0.5 120 L 1 122.5 L 0 122.5 L 0.5 120 Z "></path><path fill="rgb(243,246,249)" stroke="rgb(243,246,249)" stroke-width="1" opacity="1" d="M 53.5 14 L 56.5 15 L 58.5 14 L 59.5 15 L 69.5 15 L 71.5 15 L 83.5 17 L 85 16.5 L 84.5 18 L 87.5 18 L 96.5 22 L 101 26.5 L 108 40.5 L 108 42.5 L 109 47.5 L 108 49.5 L 109 50.5 L 110 62.5 L 105 82.5 L 98.5 91 L 84.5 98 L 82.5 97 L 82.5 99 L 80.5 98 L 77.5 100 L 76 99.5 L 75.5 101 Q 74 97.5 72.5 100 Q 68.3 99.3 67.5 102 L 59.5 100 Q 58 102.5 56.5 99 L 51.5 101 L 50 98 L 46 99 Q 47 96 44 97 L 43.5 99 L 43 97 Q 31.7 95 26 86.5 L 21 77.5 L 20 65.5 L 19 64.5 L 19 50.5 L 18 48.5 L 18.5 46 L 20 46.5 L 19 43.5 L 24 30.5 L 29.5 24 Q 31.8 24.8 31 22.5 L 30.5 21 L 32.5 22 L 35 21 L 35.5 19 L 37.5 20 L 42.5 17 L 44.5 17 L 51.5 16 L 53.5 14 Z M 60 19 L 57 21 L 55 20 L 51 20 L 44 22 L 42 24 L 40 23 L 37 25 L 40 25 L 40 26 Q 34 28 33 25 L 29 28 L 30 31 L 30 37 L 29 31 L 26 39 Q 27 41 25 40 L 25 42 L 22 50 L 23 71 L 28 81 L 28 85 L 33 89 L 34 88 L 38 89 L 34 90 L 47 95 L 49 95 L 52 97 Q 57 96 59 98 L 69 98 L 70 97 L 73 98 L 85 95 Q 89 91 96 90 L 89 89 L 97 88 L 102 81 L 106 66 L 105 63 Q 104 58 106 57 L 105 55 L 106 53 L 104 41 L 102 39 L 100 31 L 99 37 L 98 37 Q 97 32 99 31 Q 100 26 97 25 L 93 26 L 88 26 L 91 25 L 90 24 L 88 24 Q 85 25 86 23 L 82 20 L 79 22 Q 76 19 70 20 L 68 20 Q 61 22 60 19 Z "></path><path fill="rgb(243,246,249)" stroke="rgb(243,246,249)" stroke-width="1" opacity="1" d="M 32.5 28 L 35 28.5 L 33.5 34 L 32.5 28 Z "></path><path fill="rgb(243,246,249)" stroke="rgb(243,246,249)" stroke-width="1" opacity="1" d="M 37.5 28 L 42 28.5 L 37.5 29 L 37.5 28 Z "></path><path fill="rgb(243,246,249)" stroke="rgb(243,246,249)" stroke-width="1" opacity="1" d="M 86.5 28 L 90 28.5 L 86.5 29 L 86.5 28 Z "></path><path fill="rgb(243,246,249)" stroke="rgb(243,246,249)" stroke-width="1" opacity="1" d="M 29.5 79 L 30 81.5 L 29 81.5 L 29.5 79 Z "></path><path fill="rgb(243,246,249)" stroke="rgb(243,246,249)" stroke-width="1" opacity="1" d="M 98.5 80 L 99 83.5 L 98 83.5 L 98.5 80 Z "></path><path fill="rgb(243,246,249)" stroke="rgb(243,246,249)" stroke-width="1" opacity="1" d="M 32.5 84 L 35 84.5 L 32.5 85 L 32.5 84 Z "></path><path fill="rgb(191,220,239)" stroke="rgb(191,220,239)" stroke-width="1" opacity="1" d="M 57.5 25 L 58 28 L 72.5 28 L 73.5 29 L 77.5 26 L 77.5 27 L 74 29.5 L 74.5 31 L 78 28.5 L 77.5 30 L 79.5 31 L 80 29 L 93 29.5 L 81 30.5 L 91.5 36 L 92.5 31 L 93 46.5 L 91 45.5 L 91 36.5 L 89.5 36 L 77.5 32 L 74 34.5 L 73.5 39 L 72.5 32 L 72 34 L 65 33.5 L 67 32.5 L 55 32 L 54.5 42 L 54 35 L 46.5 35 Q 45 31.5 38.5 33 L 37 34.5 L 36 51.5 L 37 55 L 32 55 L 32 45.5 L 33 45.5 L 34.5 53 L 35.5 32 L 36.5 34 L 38.5 32 L 47 32 L 46.5 30 L 35.5 30 L 34 30.5 L 35.5 29 L 48 29 L 48.5 31 L 51 29.5 Q 49.1 26.3 43 28 L 43.5 26 L 51.5 26 Q 52.8 29 57 28 L 57.5 25 Z M 51 27 L 54 31 L 54 30 L 51 27 Z M 62 30 L 62 31 L 65 31 L 62 30 Z "></path><path fill="rgb(191,220,239)" stroke="rgb(191,220,239)" stroke-width="1" opacity="1" d="M 30.5 28 L 31 56 L 36 56.5 L 30.5 59 L 31 57.5 L 30 55.5 L 30.5 28 Z "></path><path fill="rgb(191,220,239)" stroke="rgb(191,220,239)" stroke-width="1" opacity="1" d="M 97.5 28 L 98 55.5 L 98 57.5 L 97.5 59 L 93 56.5 L 97 56 L 97.5 28 Z "></path><path fill="rgb(191,220,239)" stroke="rgb(191,220,239)" stroke-width="1" opacity="1" d="M 39 35 Q 43.7 34 45 37.5 L 40 39 L 39.5 44 L 39 35 Z "></path><path fill="rgb(191,220,239)" stroke="rgb(191,220,239)" stroke-width="1" opacity="1" d="M 78 36 Q 81.8 35 83 37.5 L 78 38 L 78 36 Z "></path><path fill="rgb(191,220,239)" stroke="rgb(191,220,239)" stroke-width="1" opacity="1" d="M 86.5 38 L 89 38.5 L 89 45.5 L 88 45.5 Q 89.5 38.5 86.5 39 L 86.5 38 Z "></path><path fill="rgb(191,220,239)" stroke="rgb(191,220,239)" stroke-width="1" opacity="1" d="M 42 40 L 48 40 L 48 43.5 Q 46.3 41.9 44.5 45 Q 41.5 44.1 43 48.5 L 42 48.5 L 42 40 Z "></path><path fill="rgb(191,220,239)" stroke="rgb(191,220,239)" stroke-width="1" opacity="1" d="M 80 40 L 86 40 L 86 48.5 L 85 48.5 L 85 44 Q 81.3 45.5 82 42.5 L 81 42.5 L 80.5 44 L 80 40 Z "></path><path fill="rgb(191,220,239)" stroke="rgb(191,220,239)" stroke-width="1" opacity="1" d="M 26 44 Q 29 43 28 46 Q 25 47 26 44 Z "></path><path fill="rgb(191,220,239)" stroke="rgb(191,220,239)" stroke-width="1" opacity="1" d="M 73.5 47 L 74 54.5 L 73 54.5 L 73.5 47 Z "></path><path fill="rgb(191,220,239)" stroke="rgb(191,220,239)" stroke-width="1" opacity="1" d="M 95.5 47 L 96 55 Q 92.2 56 91 53.5 Q 90.3 51.3 92.5 52 L 94 52.5 L 95.5 47 Z "></path><path fill="rgb(191,220,239)" stroke="rgb(191,220,239)" stroke-width="1" opacity="1" d="M 27.5 49 Q 29.8 48.3 29 50.5 Q 27.5 53.5 26 50.5 L 27.5 49 Z "></path><path fill="rgb(191,220,239)" stroke="rgb(191,220,239)" stroke-width="1" opacity="1" d="M 55.5 55 L 72 55.5 L 67.5 57 L 65.5 57 L 58.5 56 L 54.5 57 L 50.5 61 L 51 59.5 L 53.5 56 L 55.5 55 Z "></path><path fill="rgb(191,220,239)" stroke="rgb(191,220,239)" stroke-width="1" opacity="1" d="M 76.5 55 L 75.5 57 L 76.5 55 Z "></path><path fill="rgb(191,220,239)" stroke="rgb(191,220,239)" stroke-width="1" opacity="1" d="M 81 55 Q 84 53.8 83 57.5 L 81 58.5 L 81 55 Z "></path><path fill="rgb(191,220,239)" stroke="rgb(191,220,239)" stroke-width="1" opacity="1" d="M 84.5 55 L 85 57.5 L 84 57.5 L 84.5 55 Z "></path><path fill="rgb(191,220,239)" stroke="rgb(191,220,239)" stroke-width="1" opacity="1" d="M 28.5 56 L 29 58 L 27 57.5 L 28.5 56 Z "></path><path fill="rgb(191,220,239)" stroke="rgb(191,220,239)" stroke-width="1" opacity="1" d="M 43.5 57 L 44 59.5 L 43 59.5 L 43.5 57 Z "></path><path fill="rgb(191,220,239)" stroke="rgb(191,220,239)" stroke-width="1" opacity="1" d="M 55.5 58 L 56 60 L 54 59.5 L 55.5 58 Z "></path><path fill="rgb(191,220,239)" stroke="rgb(191,220,239)" stroke-width="1" opacity="1" d="M 57.5 58 L 74 58.5 L 57.5 59 L 57.5 58 Z "></path><path fill="rgb(191,220,239)" stroke="rgb(191,220,239)" stroke-width="1" opacity="1" d="M 32 60 L 37 60.5 L 34 61 L 32.5 68 L 32 60 Z "></path><path fill="rgb(191,220,239)" stroke="rgb(191,220,239)" stroke-width="1" opacity="1" d="M 93.5 60 Q 95.8 59.3 95 61.5 L 96 63.5 L 95 63.5 L 93.5 60 Z "></path><path fill="rgb(191,220,239)" stroke="rgb(191,220,239)" stroke-width="1" opacity="1" d="M 54.5 61 L 55 63.5 L 54 63.5 L 54.5 61 Z "></path><path fill="rgb(191,220,239)" stroke="rgb(191,220,239)" stroke-width="1" opacity="1" d="M 99 62 L 101 62.5 L 99 63.5 L 99 62 Z "></path><path fill="rgb(191,220,239)" stroke="rgb(191,220,239)" stroke-width="1" opacity="1" d="M 45.5 75 L 48 75.5 L 45.5 76 L 45.5 75 Z "></path><path fill="rgb(191,220,239)" stroke="rgb(191,220,239)" stroke-width="1" opacity="1" d="M 54.5 77 L 55 79.5 L 54 79.5 L 54.5 77 Z "></path><path fill="rgb(191,220,239)" stroke="rgb(191,220,239)" stroke-width="1" opacity="1" d="M 73.5 77 L 75 81.5 L 73 82.5 L 75 86.5 L 72.5 89 L 67.5 88 Q 65.8 90.8 59.5 89 L 53 88 L 55 84.5 L 54.5 82 L 53 81.5 L 54.5 81 L 55.5 82 L 73 82 L 73.5 77 Z M 56 83 L 56 84 L 60 85 L 71 85 L 73 84 L 56 83 Z "></path><path fill="rgb(191,220,239)" stroke="rgb(191,220,239)" stroke-width="1" opacity="1" d="M 48.5 83 L 50.5 84 L 52 83.5 Q 51.3 85.8 47.5 85 L 48.5 83 Z "></path><path fill="rgb(191,220,239)" stroke="rgb(191,220,239)" stroke-width="1" opacity="1" d="M 79.5 83 L 80 85 L 77 84.5 L 79.5 83 Z "></path><path fill="rgb(191,220,239)" stroke="rgb(191,220,239)" stroke-width="1" opacity="1" d="M 42.5 85 L 46 85.5 L 42.5 86 L 42.5 85 Z "></path><path fill="rgb(69,77,83)" stroke="rgb(69,77,83)" stroke-width="1" opacity="1" d="M 51.5 102 Q 54.3 103.3 52 104.5 Q 51.3 106.8 53.5 106 L 55.5 105 L 58 106 L 59 110.5 Q 57.3 114.5 51 113 L 51.5 102 Z M 53 107 L 52 110 L 56 112 L 57 109 L 53 107 Z "></path><path fill="rgb(69,77,83)" stroke="rgb(69,77,83)" stroke-width="1" opacity="1" d="M 88.5 102 Q 91.1 103.4 90.5 108 L 94 105.5 L 92 109.5 L 94.5 113 L 90.5 110 L 90 113 L 88 112.5 L 88.5 102 Z "></path><path fill="rgb(69,77,83)" stroke="rgb(69,77,83)" stroke-width="1" opacity="1" d="M 33.5 103 L 42 103.5 L 38 105.5 L 38 112.5 L 36 113 L 36 104.5 L 33.5 104 L 33.5 103 Z "></path><path fill="rgb(69,77,83)" stroke="rgb(69,77,83)" stroke-width="1" opacity="1" d="M 61 103 Q 66.4 101.5 68 104.5 L 67 110.5 L 68.5 113 Q 65.2 114.1 66 111.5 L 62 110 L 61.5 113 L 61 103 Z M 64 104 L 62 106 Q 61 110 66 108 Q 68 107 66 106 Q 67 103 64 104 Z "></path><path fill="rgb(69,77,83)" stroke="rgb(69,77,83)" stroke-width="1" opacity="1" d="M 44.5 105 L 48 106 L 49 109.5 L 49 111.5 Q 49.5 114.5 42.5 113 L 41 110.5 L 47 107.5 L 42 106.5 L 44.5 105 Z M 43 110 L 43 112 L 47 111 L 43 110 Z "></path><path fill="rgb(69,77,83)" stroke="rgb(69,77,83)" stroke-width="1" opacity="1" d="M 72.5 105 Q 76.5 104.5 77 107.5 L 78 112.5 L 71.5 113 L 70 110.5 L 73.5 108 L 75 108.5 Q 75.9 105.5 71.5 107 L 72.5 105 Z M 72 110 Q 71 113 75 112 Q 76 109 72 110 Z "></path><path fill="rgb(69,77,83)" stroke="rgb(69,77,83)" stroke-width="1" opacity="1" d="M 81.5 105 L 86 106 Q 87.1 108.7 84.5 108 L 81 107 Q 80 110.8 82.5 112 L 85.5 111 L 84.5 113 Q 80 114 79 111.5 Q 78 106 81.5 105 Z "></path><path fill="rgb(139,206,233)" stroke="rgb(139,206,233)" stroke-width="1" opacity="1" d="M 32.5 26 L 42.5 26 L 43 27.5 L 40.5 28 L 32.5 28 L 32 28.5 L 32 55 L 37 55 L 37 52.5 L 36 47.5 L 37 46.5 L 37 34.5 L 38.5 33 Q 45 31.5 46.5 35 L 54 35 L 54.5 42 L 55 32 L 67 32.5 L 65 33.5 L 72 34 L 72.5 32 L 73.5 39 Q 72.9 34.4 75.5 33 L 77.5 32 L 91 36 L 91 45.5 L 92.5 47 L 93 31 L 81 30.5 L 94 30 L 93.5 53 L 91 52 L 92.5 55 L 96 54.5 L 96 28 L 77.5 28 L 74.5 31 L 74 29.5 L 78.5 26 L 95.5 26 L 97 27.5 L 97 56 L 86.5 57 L 82.5 55 Q 77.3 54.8 75.5 58 L 73.5 58 L 69.5 57 L 68 57.5 L 73 55.5 Q 68.9 52.7 60.5 54 L 54.5 56 Q 53 53.5 51.5 57 Q 46.1 55.1 47 58.5 L 45 59.5 L 43.5 57 L 41.5 57 L 31 56 L 31 27.5 L 32.5 26 Z M 78 36 L 78 38 L 83 38 Q 82 35 78 36 Z M 87 38 L 87 39 Q 90 38 88 46 L 89 46 L 89 39 L 87 38 Z M 42 40 L 42 49 L 43 49 Q 41 44 45 45 Q 46 42 48 44 L 48 40 L 42 40 Z M 80 40 L 81 44 L 81 43 L 82 43 Q 81 45 85 44 L 85 49 L 86 49 L 86 40 L 80 40 Z M 74 47 L 73 55 L 74 55 L 74 47 Z "></path><path fill="rgb(139,206,233)" stroke="rgb(139,206,233)" stroke-width="1" opacity="1" d="M 50.5 27 L 54 29.5 L 53.5 31 L 50.5 27 Z "></path><path fill="rgb(139,206,233)" stroke="rgb(139,206,233)" stroke-width="1" opacity="1" d="M 35.5 30 L 47 30.5 L 35 31 L 34.5 53 L 34 31.5 L 35.5 30 Z M 39 35 L 40 44 L 40 39 L 45 38 Q 44 34 39 35 Z "></path><path fill="rgb(139,206,233)" stroke="rgb(139,206,233)" stroke-width="1" opacity="1" d="M 100 43 Q 103 42 102 45 Q 99 46 100 43 Z "></path><path fill="rgb(139,206,233)" stroke="rgb(139,206,233)" stroke-width="1" opacity="1" d="M 58.5 56 L 61 56.5 L 58.5 57 L 58.5 56 Z "></path><path fill="rgb(139,206,233)" stroke="rgb(139,206,233)" stroke-width="1" opacity="1" d="M 46.5 90 Q 48.8 89.3 48 91.5 L 46.5 90 Z "></path><path fill="rgb(225,231,245)" stroke="rgb(225,231,245)" stroke-width="1" opacity="1" d="M 82.5 21 L 84 23.5 L 83 23.5 L 82.5 21 Z "></path><path fill="rgb(225,231,245)" stroke="rgb(225,231,245)" stroke-width="1" opacity="1" d="M 56.5 22 L 68.5 22 L 69.5 23 L 80.5 24 L 82 23.5 Q 82.8 25.8 80.5 25 L 76.5 26 L 73.5 29 L 69.5 27 L 68.5 28 L 58 28 Q 59.5 23.5 55 25 Q 53.9 27.7 56.5 27 L 56.5 28 L 53.5 28 L 51.5 26 Q 47 27 46 24.5 L 56.5 22 Z "></path><path fill="rgb(225,231,245)" stroke="rgb(225,231,245)" stroke-width="1" opacity="1" d="M 44.5 28 Q 49.8 26.8 51 29.5 L 48.5 31 L 48 29 Q 43.6 30 44.5 28 Z "></path><path fill="rgb(225,231,245)" stroke="rgb(225,231,245)" stroke-width="1" opacity="1" d="M 78.5 28 L 82 28.5 L 80 29 L 79.5 31 L 77 29.5 L 78.5 28 Z "></path><path fill="rgb(225,231,245)" stroke="rgb(225,231,245)" stroke-width="1" opacity="1" d="M 61.5 30 L 65 30.5 L 61.5 31 L 61.5 30 Z "></path><path fill="rgb(225,231,245)" stroke="rgb(225,231,245)" stroke-width="1" opacity="1" d="M 35.5 31 L 37.5 31 L 47 31.5 L 38.5 32 L 36.5 34 L 35.5 31 Z "></path><path fill="rgb(225,231,245)" stroke="rgb(225,231,245)" stroke-width="1" opacity="1" d="M 82.5 31 L 90.5 31 L 91 32.5 L 92 35.5 L 89.5 34 L 82.5 32 L 82.5 31 Z "></path><path fill="rgb(225,231,245)" stroke="rgb(225,231,245)" stroke-width="1" opacity="1" d="M 32.5 32 L 34 34.5 L 34 47.5 L 33 47.5 Q 30.3 41.5 32.5 32 Z "></path><path fill="rgb(225,231,245)" stroke="rgb(225,231,245)" stroke-width="1" opacity="1" d="M 95.5 33 L 96 46.5 L 94.5 49 L 94 36.5 L 95.5 33 Z "></path><path fill="rgb(225,231,245)" stroke="rgb(225,231,245)" stroke-width="1" opacity="1" d="M 28.5 40 L 30 42.5 L 30 55.5 L 31 57.5 L 30 58.5 L 30 72.5 L 28.5 75 L 27 72.5 L 27.5 71 L 26 70.5 L 27 65.5 L 26 64.5 L 26 58 Q 29.8 59.5 29 56.5 L 27.5 57 Q 24.9 57.8 26 54.5 L 26 52.5 L 26.5 51 Q 27.8 53.3 29 50.5 L 27.5 48 L 26.5 50 L 26 48.5 L 26.5 46 Q 28.8 46.8 28 44.5 L 28 42.5 L 28.5 40 Z "></path><path fill="rgb(225,231,245)" stroke="rgb(225,231,245)" stroke-width="1" opacity="1" d="M 99.5 41 Q 102.3 42.3 100 43.5 Q 99.3 45.8 101.5 45 L 101 46.5 Q 103.5 52 102 61.5 L 103 62.5 L 102 68 L 100 68.5 L 102 69.5 L 99.5 78 L 98 73.5 L 98 57.5 L 97 56.5 L 98 55.5 L 98 42.5 L 99.5 41 Z M 99 62 Q 98 65 101 64 Q 102 61 99 62 Z "></path><path fill="rgb(225,231,245)" stroke="rgb(225,231,245)" stroke-width="1" opacity="1" d="M 94.5 62 L 96 64.5 L 96 82.5 L 95 82.5 L 94 79.5 L 94.5 62 Z "></path><path fill="rgb(225,231,245)" stroke="rgb(225,231,245)" stroke-width="1" opacity="1" d="M 33.5 65 L 34 79.5 L 32.5 84 L 32 68.5 L 33.5 65 Z "></path><path fill="rgb(225,231,245)" stroke="rgb(225,231,245)" stroke-width="1" opacity="1" d="M 36.5 79 L 38 81.5 Q 36.5 84.5 35 81.5 L 36.5 79 Z "></path><path fill="rgb(225,231,245)" stroke="rgb(225,231,245)" stroke-width="1" opacity="1" d="M 91.5 80 Q 94.5 81.5 91.5 83 Q 88.5 81.5 91.5 80 Z "></path><path fill="rgb(225,231,245)" stroke="rgb(225,231,245)" stroke-width="1" opacity="1" d="M 54.5 82 L 55.5 83 L 72.5 83 L 74 82.5 L 72.5 84 L 55.5 84 L 54.5 82 Z "></path><path fill="rgb(225,231,245)" stroke="rgb(225,231,245)" stroke-width="1" opacity="1" d="M 37.5 84 L 47 84.5 Q 41.5 87 32.5 86 L 32.5 85 L 37.5 84 Z "></path><path fill="rgb(225,231,245)" stroke="rgb(225,231,245)" stroke-width="1" opacity="1" d="M 80.5 84 L 89.5 84 L 96 85.5 L 83.5 86 L 80.5 85 L 80.5 84 Z "></path><path fill="rgb(225,231,245)" stroke="rgb(225,231,245)" stroke-width="1" opacity="1" d="M 32.5 87 L 44.5 87 L 45.5 88 L 47.5 88 L 52.5 87 L 59.5 89 L 66.5 89 L 68.5 88 L 72.5 89 L 76.5 87 L 79.5 88 L 80.5 87 L 95.5 87 L 95.5 88 L 85.5 88 L 85 90 L 82.5 90 L 76.5 93 L 58.5 94 L 49.5 92 L 48 92.5 Q 49.3 87.7 46 89 L 45.5 92 L 41 89.5 L 43 88.5 L 32.5 88 L 32.5 87 Z "></path><path fill="rgb(225,231,245)" stroke="rgb(225,231,245)" stroke-width="1" opacity="1" d="M 42.5 105 L 41.5 107 L 42.5 105 Z "></path><path fill="rgb(225,231,245)" stroke="rgb(225,231,245)" stroke-width="1" opacity="1" d="M 77.5 108 L 78 110.5 L 77 110.5 L 77.5 108 Z "></path><path fill="rgb(247,247,242)" stroke="rgb(247,247,242)" stroke-width="1" opacity="1" d="M 33.5 100 L 41 100.5 L 33.5 101 L 33.5 100 Z "></path><path fill="rgb(247,247,242)" stroke="rgb(247,247,242)" stroke-width="1" opacity="1" d="M 48.5 102 L 49 104.5 L 48 104.5 L 48.5 102 Z "></path><path fill="rgb(247,247,242)" stroke="rgb(247,247,242)" stroke-width="1" opacity="1" d="M 54.5 102 L 57 103.5 L 54 104 L 54.5 102 Z "></path><path fill="rgb(247,247,242)" stroke="rgb(247,247,242)" stroke-width="1" opacity="1" d="M 58.5 102 L 59 104.5 L 58 104.5 L 58.5 102 Z "></path><path fill="rgb(247,247,242)" stroke="rgb(247,247,242)" stroke-width="1" opacity="1" d="M 85.5 102 L 86 104 Q 80.2 102.5 78.5 106 L 80.5 103 L 85.5 102 Z "></path><path fill="rgb(247,247,242)" stroke="rgb(247,247,242)" stroke-width="1" opacity="1" d="M 43.5 103 L 47 103.5 L 43.5 104 L 43.5 103 Z "></path><path fill="rgb(247,247,242)" stroke="rgb(247,247,242)" stroke-width="1" opacity="1" d="M 71.5 103 L 76 103.5 L 71.5 104 L 71.5 103 Z "></path><path fill="rgb(247,247,242)" stroke="rgb(247,247,242)" stroke-width="1" opacity="1" d="M 33.5 106 Q 36.5 105.5 35 112.5 L 34 112.5 L 33.5 106 Z "></path><path fill="rgb(247,247,242)" stroke="rgb(247,247,242)" stroke-width="1" opacity="1" d="M 43.5 107 L 42.5 109 L 43.5 107 Z "></path><path fill="rgb(247,247,242)" stroke="rgb(247,247,242)" stroke-width="1" opacity="1" d="M 95.5 107 L 95 108.5 L 97 111.5 L 94 109.5 L 95.5 107 Z "></path><path fill="rgb(247,247,242)" stroke="rgb(247,247,242)" stroke-width="1" opacity="1" d="M 82.5 109 L 84 109.5 L 81.5 111 L 82.5 109 Z "></path><path fill="rgb(247,247,242)" stroke="rgb(247,247,242)" stroke-width="1" opacity="1" d="M 81.5 115 L 84 115.5 L 81.5 116 L 81.5 115 Z "></path><path fill="rgb(249,249,244)" stroke="rgb(249,249,244)" stroke-width="1" opacity="1" d="M 0 0 Q 5.6 -1.9 4 3 Q 0.2 1.5 1 4.5 L 0 4.5 L 0 0 Z "></path><path fill="rgb(249,249,244)" stroke="rgb(249,249,244)" stroke-width="1" opacity="1" d="M 10 0 L 15 0.5 L 11 1 L 10.5 3 L 10 0 Z "></path><path fill="rgb(249,249,244)" stroke="rgb(249,249,244)" stroke-width="1" opacity="1" d="M 17.5 0 L 20 0.5 L 17.5 1 L 17.5 0 Z "></path><path fill="rgb(249,249,244)" stroke="rgb(249,249,244)" stroke-width="1" opacity="1" d="M 21.5 0 L 43 0.5 L 31.5 2 Q 29.7 -0.8 23.5 1 Q 21.7 3.5 21.5 0 Z "></path><path fill="rgb(249,249,244)" stroke="rgb(249,249,244)" stroke-width="1" opacity="1" d="M 46.5 0 L 50 0.5 L 46.5 1 L 46.5 0 Z "></path><path fill="rgb(249,249,244)" stroke="rgb(249,249,244)" stroke-width="1" opacity="1" d="M 51.5 0 L 64.5 0 L 65.5 1 L 66.5 0 L 84.5 0 L 84.5 1 Q 79.7 -0.3 78.5 2 L 77.5 1 L 66.5 1 L 64.5 1 L 51.5 1 L 51.5 0 Z "></path><path fill="rgb(249,249,244)" stroke="rgb(249,249,244)" stroke-width="1" opacity="1" d="M 87.5 0 Q 93.8 -1.8 95.5 1 L 96.5 0 L 114.5 0 L 114.5 1 L 102.5 1 L 101.5 2 L 99.5 1 L 95.5 2 L 93.5 1 L 91.5 1 Q 86.5 2 87.5 0 Z "></path><path fill="rgb(249,249,244)" stroke="rgb(249,249,244)" stroke-width="1" opacity="1" d="M 116.5 0 L 122 0.5 L 116.5 1 L 116.5 0 Z "></path><path fill="rgb(249,249,244)" stroke="rgb(249,249,244)" stroke-width="1" opacity="1" d="M 123.5 0 Q 127.3 -0.8 128 1.5 L 127 4.5 L 127.5 6 L 125 4.5 L 127 4 L 125.5 1 Q 122.5 1.5 123.5 0 Z "></path><path fill="rgb(249,249,244)" stroke="rgb(249,249,244)" stroke-width="1" opacity="1" d="M 110.5 3 L 112 3.5 L 109.5 5 L 110.5 3 Z "></path><path fill="rgb(249,249,244)" stroke="rgb(249,249,244)" stroke-width="1" opacity="1" d="M 23.5 4 L 24 5.5 L 21 10 L 19 9.5 L 23.5 4 Z "></path><path fill="rgb(249,249,244)" stroke="rgb(249,249,244)" stroke-width="1" opacity="1" d="M 0.5 6 Q 2.8 5.3 2 7.5 L 0.5 6 Z "></path><path fill="rgb(249,249,244)" stroke="rgb(249,249,244)" stroke-width="1" opacity="1" d="M 106.5 8 Q 110.3 7 109 10 L 106.5 8 Z "></path><path fill="rgb(249,249,244)" stroke="rgb(249,249,244)" stroke-width="1" opacity="1" d="M 126.5 8 L 128 11.5 L 126 12 L 126.5 8 Z "></path><path fill="rgb(249,249,244)" stroke="rgb(249,249,244)" stroke-width="1" opacity="1" d="M 0 10 L 2 10.5 L 1.5 13 Q -1.5 13.7 0 10 Z "></path><path fill="rgb(249,249,244)" stroke="rgb(249,249,244)" stroke-width="1" opacity="1" d="M 30 10 Q 33 9 32 12 L 29.5 13 L 30 11.5 L 30 10 Z "></path><path fill="rgb(249,249,244)" stroke="rgb(249,249,244)" stroke-width="1" opacity="1" d="M 48.5 10 L 54 10.5 L 47.5 12 L 48.5 10 Z "></path><path fill="rgb(249,249,244)" stroke="rgb(249,249,244)" stroke-width="1" opacity="1" d="M 57.5 10 L 61 10.5 L 57.5 11 L 57.5 10 Z "></path><path fill="rgb(249,249,244)" stroke="rgb(249,249,244)" stroke-width="1" opacity="1" d="M 75.5 10 L 78 10.5 L 75.5 11 L 75.5 10 Z "></path><path fill="rgb(249,249,244)" stroke="rgb(249,249,244)" stroke-width="1" opacity="1" d="M 79.5 10 L 84 10.5 L 79.5 11 L 79.5 10 Z "></path><path fill="rgb(249,249,244)" stroke="rgb(249,249,244)" stroke-width="1" opacity="1" d="M 89.5 10 L 92 10.5 L 89.5 11 L 89.5 10 Z "></path><path fill="rgb(249,249,244)" stroke="rgb(249,249,244)" stroke-width="1" opacity="1" d="M 97.5 10 L 100.5 11 L 103 10 Q 101.9 12.7 104.5 12 L 108 16.5 L 107 16.5 L 105.5 14 L 95 11.5 L 97.5 10 Z "></path><path fill="rgb(249,249,244)" stroke="rgb(249,249,244)" stroke-width="1" opacity="1" d="M 112.5 11 Q 115.5 12.5 112.5 14 Q 109.5 12.5 112.5 11 Z "></path><path fill="rgb(249,249,244)" stroke="rgb(249,249,244)" stroke-width="1" opacity="1" d="M 22.5 12 L 25 12.5 L 17 19 L 18 22.5 Q 14.5 24 17 25.5 L 15.5 32 L 12 30.5 L 14 30.5 L 15 25.5 L 14 23.5 L 17 22.5 Q 17.8 19.9 14.5 21 L 13.5 19 L 15.5 19 L 20 16.5 L 19 15.5 L 22.5 12 Z "></path><path fill="rgb(249,249,244)" stroke="rgb(249,249,244)" stroke-width="1" opacity="1" d="M 126 13 L 128 13.5 L 126.5 17 L 126 13 Z "></path><path fill="rgb(249,249,244)" stroke="rgb(249,249,244)" stroke-width="1" opacity="1" d="M 0 14 L 2 14.5 L 0.5 18 L 0 14 Z "></path><path fill="rgb(249,249,244)" stroke="rgb(249,249,244)" stroke-width="1" opacity="1" d="M 14.5 16 L 13.5 18 L 14.5 16 Z "></path><path fill="rgb(249,249,244)" stroke="rgb(249,249,244)" stroke-width="1" opacity="1" d="M 113.5 17 Q 115.8 16.3 115 18.5 L 113.5 17 Z "></path><path fill="rgb(249,249,244)" stroke="rgb(249,249,244)" stroke-width="1" opacity="1" d="M 115.5 20 Q 120 22 116.5 24 L 115.5 20 Z "></path><path fill="rgb(249,249,244)" stroke="rgb(249,249,244)" stroke-width="1" opacity="1" d="M 111.5 21 L 114 22.5 L 114 24.5 L 113.5 26 L 111.5 21 Z "></path><path fill="rgb(249,249,244)" stroke="rgb(249,249,244)" stroke-width="1" opacity="1" d="M 0.5 22 L 2 24.5 L 0 23.5 L 0.5 22 Z "></path><path fill="rgb(249,249,244)" stroke="rgb(249,249,244)" stroke-width="1" opacity="1" d="M 126.5 23 Q 128.8 23.8 128 27.5 L 125 29 Q 123.8 24.4 126.5 23 Z "></path><path fill="rgb(249,249,244)" stroke="rgb(249,249,244)" stroke-width="1" opacity="1" d="M 0.5 26 Q 2.9 28.1 2 33.5 L 1 35.5 L 2 40 L 0 39.5 L 0.5 26 Z "></path><path fill="rgb(249,249,244)" stroke="rgb(249,249,244)" stroke-width="1" opacity="1" d="M 116.5 27 L 117.5 29 L 116.5 27 Z "></path><path fill="rgb(249,249,244)" stroke="rgb(249,249,244)" stroke-width="1" opacity="1" d="M 112.5 29 L 114 32.5 L 113 32.5 L 112.5 29 Z "></path><path fill="rgb(249,249,244)" stroke="rgb(249,249,244)" stroke-width="1" opacity="1" d="M 116 30 Q 119 29 118 32 Q 115 33 116 30 Z "></path><path fill="rgb(249,249,244)" stroke="rgb(249,249,244)" stroke-width="1" opacity="1" d="M 15.5 33 L 16 35 L 13 34.5 L 15.5 33 Z "></path><path fill="rgb(249,249,244)" stroke="rgb(249,249,244)" stroke-width="1" opacity="1" d="M 109.5 36 L 110.5 38 Q 107.7 38.7 109.5 36 Z "></path><path fill="rgb(249,249,244)" stroke="rgb(249,249,244)" stroke-width="1" opacity="1" d="M 116.5 36 Q 119.3 37.3 118 42.5 L 117 44.5 L 117.5 46 L 116 43.5 L 117 38.5 L 116.5 36 Z "></path><path fill="rgb(249,249,244)" stroke="rgb(249,249,244)" stroke-width="1" opacity="1" d="M 14.5 37 L 15 39 L 13 38.5 L 14.5 37 Z "></path><path fill="rgb(249,249,244)" stroke="rgb(249,249,244)" stroke-width="1" opacity="1" d="M 112.5 38 L 114 40.5 L 112 39.5 L 112.5 38 Z "></path><path fill="rgb(249,249,244)" stroke="rgb(249,249,244)" stroke-width="1" opacity="1" d="M 14.5 40 L 16 45.5 L 14.5 48 L 13 45.5 L 15 45.5 L 14.5 40 Z "></path><path fill="rgb(249,249,244)" stroke="rgb(249,249,244)" stroke-width="1" opacity="1" d="M 0.5 41 L 1.5 48 L 3 47.5 Q -0.5 49 2 50.5 L 3 52.5 L 1 53.5 Q -1.4 48.6 0.5 41 Z "></path><path fill="rgb(249,249,244)" stroke="rgb(249,249,244)" stroke-width="1" opacity="1" d="M 126.5 45 L 128 47.5 L 126.5 47 L 125 46.5 L 126.5 45 Z "></path><path fill="rgb(249,249,244)" stroke="rgb(249,249,244)" stroke-width="1" opacity="1" d="M 126.5 49 L 128 49.5 L 128 53.5 L 127 55.5 L 128 57.5 L 127 61 L 124 60.5 L 124 58.5 L 123 51.5 L 126.5 49 Z "></path><path fill="rgb(249,249,244)" stroke="rgb(249,249,244)" stroke-width="1" opacity="1" d="M 13.5 50 L 16 51.5 L 14 52.5 L 14.5 51 L 13.5 50 Z "></path><path fill="rgb(249,249,244)" stroke="rgb(249,249,244)" stroke-width="1" opacity="1" d="M 15.5 54 L 16 57.5 L 15 57.5 L 15.5 54 Z "></path><path fill="rgb(249,249,244)" stroke="rgb(249,249,244)" stroke-width="1" opacity="1" d="M 1.5 56 L 1 57.5 L 0.5 59 L 0 57.5 L 1.5 56 Z "></path><path fill="rgb(249,249,244)" stroke="rgb(249,249,244)" stroke-width="1" opacity="1" d="M 10.5 56 L 11 59.5 L 10 59.5 L 10.5 56 Z "></path><path fill="rgb(249,249,244)" stroke="rgb(249,249,244)" stroke-width="1" opacity="1" d="M 0 60 Q 4 58.6 2 65.5 L 0 66.5 L 0 62.5 L 0 60 Z "></path><path fill="rgb(249,249,244)" stroke="rgb(249,249,244)" stroke-width="1" opacity="1" d="M 126.5 63 Q 129.3 64.3 127 65.5 L 125.5 68 L 125 66.5 L 126.5 63 Z "></path><path fill="rgb(249,249,244)" stroke="rgb(249,249,244)" stroke-width="1" opacity="1" d="M 11.5 67 L 12 71.5 L 11 71.5 L 11.5 67 Z "></path><path fill="rgb(249,249,244)" stroke="rgb(249,249,244)" stroke-width="1" opacity="1" d="M 125.5 70 Q 129.3 68.8 128 72.5 L 125.5 70 Z "></path><path fill="rgb(249,249,244)" stroke="rgb(249,249,244)" stroke-width="1" opacity="1" d="M 0.5 73 Q 3.3 74.3 1 75.5 L 2 78.5 L 1 80.5 L 1 82.5 L 2 86.5 L 2 88.5 L 1 92.5 L 2 96.5 L 2 98.5 Q 2.8 102.3 0.5 103 L 0 89.5 L 0 87.5 L 0 79.5 L 1 78.5 L 0 75.5 L 0.5 73 Z "></path><path fill="rgb(249,249,244)" stroke="rgb(249,249,244)" stroke-width="1" opacity="1" d="M 11.5 73 L 12 78.5 L 11 78.5 L 11.5 73 Z "></path><path fill="rgb(249,249,244)" stroke="rgb(249,249,244)" stroke-width="1" opacity="1" d="M 114 74 L 116.5 75 L 118 74.5 L 115 75.5 Q 114.2 78.5 118 77 L 118 80 Q 114.2 78.5 115 81.5 L 114 81.5 L 115 78.5 L 114 74 Z "></path><path fill="rgb(249,249,244)" stroke="rgb(249,249,244)" stroke-width="1" opacity="1" d="M 125 74 L 128 75.5 L 125 76 L 125 74 Z "></path><path fill="rgb(249,249,244)" stroke="rgb(249,249,244)" stroke-width="1" opacity="1" d="M 14.5 76 L 14.5 78 L 16 78.5 L 15.5 80 Q 20.1 78.8 18 84 Q 14.7 82.7 16 87.5 Q 19.1 89 18.5 94 L 20 89.5 L 18 86 L 21 87.5 L 23 91.5 L 20 90.5 L 21 92.5 Q 18.3 93.6 19 97 L 22 97.5 L 20 98.5 L 21 101.5 L 20 101.5 Q 20.8 99.3 18.5 100 L 18.5 102 L 17 100.5 L 18.5 98 L 16 98 Q 17 95 14 96 L 14 92.5 L 14 90.5 L 14.5 89 L 15 90.5 L 14.5 92 L 16 92.5 L 15 94.5 L 17 93.5 L 16 88 L 13 86.5 L 15 86.5 L 16 81.5 L 13 77.5 L 14.5 76 Z "></path><path fill="rgb(249,249,244)" stroke="rgb(249,249,244)" stroke-width="1" opacity="1" d="M 125 78 Q 128.7 76.7 127 82.5 L 128 84.5 L 126 83.5 L 125 78 Z "></path><path fill="rgb(249,249,244)" stroke="rgb(249,249,244)" stroke-width="1" opacity="1" d="M 111.5 79 L 112 80.5 L 110 81.5 L 111.5 79 Z "></path><path fill="rgb(249,249,244)" stroke="rgb(249,249,244)" stroke-width="1" opacity="1" d="M 12.5 81 L 13.5 83 L 12.5 81 Z "></path><path fill="rgb(249,249,244)" stroke="rgb(249,249,244)" stroke-width="1" opacity="1" d="M 116.5 84 L 116 85.5 L 115.5 88 Q 112 86 116.5 84 Z "></path><path fill="rgb(249,249,244)" stroke="rgb(249,249,244)" stroke-width="1" opacity="1" d="M 108 85 Q 110.7 83.9 110 86.5 L 111.5 86 L 113 86.5 L 113 88.5 L 112.5 91 L 111 90.5 L 109 93.5 L 109.5 95 Q 107.8 91.3 106 94.5 L 108 99.5 L 105.5 98 L 103.5 100 L 100.5 102 L 97.5 101 L 92 99.5 L 95.5 99 L 98 99.5 L 98.5 101 L 100 98.5 L 98 97.5 Q 99.5 93 105 92.5 Q 102.8 91.3 105.5 90 L 108 88.5 L 108 85 Z M 102 94 L 102 96 L 104 95 L 102 94 Z "></path><path fill="rgb(249,249,244)" stroke="rgb(249,249,244)" stroke-width="1" opacity="1" d="M 114.5 92 L 117 93.5 L 115.5 94 L 114.5 92 Z "></path><path fill="rgb(249,249,244)" stroke="rgb(249,249,244)" stroke-width="1" opacity="1" d="M 22.5 93 L 25 94.5 L 22.5 96 Q 19.5 94.5 22.5 93 Z "></path><path fill="rgb(249,249,244)" stroke="rgb(249,249,244)" stroke-width="1" opacity="1" d="M 112.5 93 L 113 95.5 L 111 100 Q 107.7 101.1 109 97 Q 111.7 98.1 111 95.5 L 112.5 93 Z "></path><path fill="rgb(249,249,244)" stroke="rgb(249,249,244)" stroke-width="1" opacity="1" d="M 27.5 95 L 31 97.5 L 27 98 L 27.5 95 Z "></path><path fill="rgb(249,249,244)" stroke="rgb(249,249,244)" stroke-width="1" opacity="1" d="M 23.5 98 L 26 98.5 L 23.5 99 L 23.5 98 Z "></path><path fill="rgb(249,249,244)" stroke="rgb(249,249,244)" stroke-width="1" opacity="1" d="M 32.5 98 L 33.5 100 L 32.5 98 Z "></path><path fill="rgb(249,249,244)" stroke="rgb(249,249,244)" stroke-width="1" opacity="1" d="M 26.5 100 L 29 100.5 L 25.5 102 L 26.5 100 Z "></path><path fill="rgb(249,249,244)" stroke="rgb(249,249,244)" stroke-width="1" opacity="1" d="M 85.5 101 L 84.5 103 L 82 102.5 L 85.5 101 Z "></path><path fill="rgb(249,249,244)" stroke="rgb(249,249,244)" stroke-width="1" opacity="1" d="M 106.5 101 L 108 101.5 L 103.5 104 L 102.5 102 L 104.5 102 L 106.5 101 Z "></path><path fill="rgb(249,249,244)" stroke="rgb(249,249,244)" stroke-width="1" opacity="1" d="M 76 103 L 80 103.5 L 78 104 L 77.5 106 L 76 103 Z "></path><path fill="rgb(249,249,244)" stroke="rgb(249,249,244)" stroke-width="1" opacity="1" d="M 30.5 104 L 32.5 107 L 30.5 104 Z "></path><path fill="rgb(249,249,244)" stroke="rgb(249,249,244)" stroke-width="1" opacity="1" d="M 27.5 106 L 31 108.5 L 29.5 109 L 27 108 L 27.5 106 Z "></path><path fill="rgb(249,249,244)" stroke="rgb(249,249,244)" stroke-width="1" opacity="1" d="M 100.5 107 L 99.5 109 L 98 108.5 L 100.5 107 Z "></path><path fill="rgb(249,249,244)" stroke="rgb(249,249,244)" stroke-width="1" opacity="1" d="M 34.5 114 L 38 116 L 37.5 118 L 34.5 114 Z "></path><path fill="rgb(249,249,244)" stroke="rgb(249,249,244)" stroke-width="1" opacity="1" d="M 0.5 115 L 1 117.5 L 0 117.5 L 0.5 115 Z "></path><path fill="rgb(249,249,244)" stroke="rgb(249,249,244)" stroke-width="1" opacity="1" d="M 91.5 116 L 93 119 L 91 118.5 L 91.5 116 Z "></path><path fill="rgb(249,249,244)" stroke="rgb(249,249,244)" stroke-width="1" opacity="1" d="M 64.5 118 L 63.5 120 L 62 119.5 L 64.5 118 Z "></path><path fill="rgb(249,249,244)" stroke="rgb(249,249,244)" stroke-width="1" opacity="1" d="M 80.5 118 L 79.5 120 L 76.5 121 L 77.5 119 L 80.5 118 Z "></path><path fill="rgb(249,249,244)" stroke="rgb(249,249,244)" stroke-width="1" opacity="1" d="M 0.5 119 Q 3.5 118.1 2 122.5 L 1.5 126 Q 4.1 125.3 3 128 Q -1.9 129.8 0 123.5 L 1 120.5 L 0.5 119 Z "></path><path fill="rgb(249,249,244)" stroke="rgb(249,249,244)" stroke-width="1" opacity="1" d="M 50.5 119 L 53 119.5 L 50.5 120 L 50.5 119 Z "></path><path fill="rgb(238,240,247)" stroke="rgb(238,240,247)" stroke-width="1" opacity="1" d="M 59.5 19 Q 61.2 21.8 67.5 20 L 69.5 20 Q 75.6 19.4 78.5 22 L 81.5 20 L 82 22 L 80 22.5 L 80.5 24 L 69.5 23 L 68.5 22 L 56.5 22 L 46 24.5 L 46.5 26 Q 40.1 26.9 37 24.5 L 39.5 23 L 41.5 24 L 43.5 22 L 50.5 20 L 54.5 20 L 56.5 21 L 59.5 19 Z "></path><path fill="rgb(238,240,247)" stroke="rgb(238,240,247)" stroke-width="1" opacity="1" d="M 83.5 21 L 86 22.5 Q 85.3 24.8 87.5 24 L 89.5 24 L 91 24.5 Q 87.6 27.1 80.5 26 L 80.5 25 L 84 24 L 83.5 21 Z "></path><path fill="rgb(238,240,247)" stroke="rgb(238,240,247)" stroke-width="1" opacity="1" d="M 82.5 28 L 86 28.5 L 82.5 29 L 82.5 28 Z "></path><path fill="rgb(238,240,247)" stroke="rgb(238,240,247)" stroke-width="1" opacity="1" d="M 32.5 29 L 33 31.5 L 32 31.5 L 32.5 29 Z "></path><path fill="rgb(238,240,247)" stroke="rgb(238,240,247)" stroke-width="1" opacity="1" d="M 94.5 29 Q 97.5 28.1 96 32.5 L 94.5 36 L 94 31.5 L 94.5 29 Z "></path><path fill="rgb(238,240,247)" stroke="rgb(238,240,247)" stroke-width="1" opacity="1" d="M 28.5 31 L 30 41.5 L 29 41.5 L 28.5 40 L 26 46.5 L 27.5 49 L 26 48.5 L 27 53.5 L 26 56.5 L 26 58.5 L 27 69.5 L 26.5 71 L 28 71.5 L 26 72 Q 24.9 74.7 27.5 74 L 29 74.5 L 29.5 73 L 30 78.5 L 28.5 85 L 28 80.5 L 23 70.5 L 22 49.5 L 25 41.5 L 24.5 40 Q 26.8 40.8 26 38.5 L 28.5 31 Z "></path><path fill="rgb(238,240,247)" stroke="rgb(238,240,247)" stroke-width="1" opacity="1" d="M 99.5 31 L 102 38.5 L 104 40.5 L 106 52.5 L 105 54.5 L 106 56.5 Q 103.8 57.7 105 62.5 L 106 65.5 L 103 77.5 L 99.5 85 L 98 74.5 L 99 74.5 L 99.5 78 L 103 62.5 L 102 61.5 Q 103.5 52 101 46.5 L 102 43.5 Q 100 39.8 98 41.5 L 99.5 31 Z "></path><path fill="rgb(238,240,247)" stroke="rgb(238,240,247)" stroke-width="1" opacity="1" d="M 33.5 80 L 34 83.5 L 33 83.5 L 33.5 80 Z "></path><path fill="rgb(238,240,247)" stroke="rgb(238,240,247)" stroke-width="1" opacity="1" d="M 94.5 80 L 96 85 L 90 84.5 L 94 84 L 94.5 80 Z "></path><path fill="rgb(238,240,247)" stroke="rgb(238,240,247)" stroke-width="1" opacity="1" d="M 30.5 86 L 31.5 88 L 30.5 86 Z "></path><path fill="rgb(238,240,247)" stroke="rgb(238,240,247)" stroke-width="1" opacity="1" d="M 97.5 86 L 96.5 88 L 97.5 86 Z "></path><path fill="rgb(238,240,247)" stroke="rgb(238,240,247)" stroke-width="1" opacity="1" d="M 38.5 88 L 43 88.5 L 41 89.5 L 48.5 93 L 50.5 92 L 58.5 94 L 70.5 94 L 85 90 Q 83.7 86.7 88.5 88 L 96 89.5 Q 88.7 90.7 84.5 95 L 72.5 98 L 69.5 97 L 68.5 98 L 58.5 98 Q 57 95.5 51.5 97 L 48.5 95 L 46.5 95 L 34 89.5 L 38.5 88 Z "></path><path fill="rgb(238,240,247)" stroke="rgb(238,240,247)" stroke-width="1" opacity="1" d="M 57.5 105 L 58.5 107 L 57.5 105 Z "></path><path fill="rgb(203,178,236)" stroke="rgb(203,178,236)" stroke-width="1" opacity="1" d="M 81.5 22 L 82.5 24 L 81.5 22 Z "></path><path fill="rgb(203,178,236)" stroke="rgb(203,178,236)" stroke-width="1" opacity="1" d="M 33.5 57 Q 39.5 55.5 41 58.5 L 38 60.5 L 42.5 61 Q 43.8 58.7 45 61.5 L 39 62 L 39.5 64 L 43 63 Q 41.9 65.7 44.5 65 L 47.5 69 L 49 69.5 L 48 75 L 42.5 77 L 42 74.5 Q 40.8 68.4 43.5 69 L 45 66 Q 41.2 65 40 67.5 L 40 76.5 L 41.5 78 Q 49.2 79.7 51 75.5 L 50 71.5 L 51 70.5 L 51 64 L 46.5 65 L 45.5 63 Q 52.5 61.5 52 64.5 L 53 71 L 56 71 L 56 62.5 Q 57.9 59.3 64 61 Q 62.9 64.5 70.5 63 Q 73 64.2 72 68 Q 77.3 69.8 75 62.5 Q 76.4 59.8 81 61 L 82.5 58 L 83 59.5 L 83 61.5 Q 82.4 64.3 88.5 63 L 88.5 62 L 85.5 61 L 84 61.5 L 84 59.5 Q 83.3 56.9 86 58 Q 84.7 62.1 88 61 L 87 57 L 95.5 57 L 98 59.5 L 98 85.5 L 96.5 87 L 97 85.5 L 96 62.5 L 95 60 L 93 60.5 L 93 62.5 L 94 84 L 81.5 83 L 78.5 84 L 77 84.5 L 88 86.5 L 77.5 88 L 73 84.5 L 75 83.5 L 75 79.5 L 75 74.5 L 77 74 L 77 72.5 L 78 72.5 L 77 74.5 L 77 76.5 Q 75.3 81.3 79.5 80 L 79.5 79 Q 77.3 79.8 78 77.5 L 79.5 78 Q 86.3 79.8 88 76.5 L 88 67.5 L 86.5 66 L 83 65.5 Q 85.8 63.8 81.5 62 L 77 62 L 77 69 L 72.5 69 L 69.5 64 L 64.5 64 Q 63.5 61 58.5 62 Q 55.8 63.3 58 64.5 Q 59.5 70.5 56.5 72 L 51.5 71 L 51 73.5 L 52.5 73 Q 57.3 72.3 58 75.5 L 57 78.5 L 58.5 80 L 70 80 L 70 72.5 L 71.5 71 L 76 71.5 L 72 72 L 72 79.5 L 73 80.5 L 70.5 81 L 57.5 81 L 56.5 80 L 55.5 82 L 55 80.5 L 56 75 Q 51.5 73.3 53 78.5 L 54 80.5 L 54 82.5 L 55 84.5 Q 53.3 87.8 48.5 88 L 46.5 87 L 45 87.5 L 46.5 85 L 51 84.5 L 48.5 83 L 46.5 83 Q 38.2 82.1 34 84 L 35 62.5 L 34.5 61 L 37 60.5 L 32 60 L 31 85.5 L 31.5 87 L 30 85.5 L 30 59.5 L 33.5 57 Z M 37 79 L 35 82 Q 37 85 38 82 L 37 79 Z M 92 80 Q 89 82 92 83 Q 95 82 92 80 Z "></path><path fill="rgb(203,178,236)" stroke="rgb(203,178,236)" stroke-width="1" opacity="1" d="M 50.5 59 L 50 60.5 L 49.5 62 L 49 60.5 L 50.5 59 Z "></path><path fill="rgb(203,178,236)" stroke="rgb(203,178,236)" stroke-width="1" opacity="1" d="M 54.5 64 L 55 68.5 L 54 68.5 L 54.5 64 Z "></path><path fill="rgb(203,178,236)" stroke="rgb(203,178,236)" stroke-width="1" opacity="1" d="M 80 68 L 86 68 L 86 74.5 L 85.5 77 L 81.5 76 L 80 76.5 L 80 68 Z "></path><path fill="rgb(203,178,236)" stroke="rgb(203,178,236)" stroke-width="1" opacity="1" d="M 73.5 73 L 74 76.5 L 73 76.5 L 73.5 73 Z "></path><path fill="rgb(203,178,236)" stroke="rgb(203,178,236)" stroke-width="1" opacity="1" d="M 60.5 78 L 68 78.5 L 60.5 79 L 60.5 78 Z "></path><path fill="rgb(203,178,236)" stroke="rgb(203,178,236)" stroke-width="1" opacity="1" d="M 59.5 84 L 71 84.5 L 59.5 85 L 59.5 84 Z "></path><path fill="rgb(203,178,236)" stroke="rgb(203,178,236)" stroke-width="1" opacity="1" d="M 92.5 105 L 91.5 107 L 92.5 105 Z "></path><path fill="rgb(203,178,236)" stroke="rgb(203,178,236)" stroke-width="1" opacity="1" d="M 94.5 106 L 93.5 108 L 94.5 106 Z "></path><path fill="rgb(171,157,222)" stroke="rgb(171,157,222)" stroke-width="1" opacity="1" d="M 60.5 54 L 70 54.5 L 60.5 55 L 60.5 54 Z "></path><path fill="rgb(171,157,222)" stroke="rgb(171,157,222)" stroke-width="1" opacity="1" d="M 53.5 55 L 49 60.5 L 49.5 62 Q 51.5 55 62.5 57 L 62.5 58 Q 55.7 56.2 54 59.5 L 54.5 69 L 55 60.5 L 56.5 59 L 73.5 59 L 80.5 55 L 81 61 Q 76.4 59.8 75 62.5 Q 77.3 69.8 72 68 Q 73 64.2 70.5 63 L 64 63.5 Q 69.4 62.6 71 65.5 L 71 67.5 L 71.5 69 L 77 69 L 77 62 L 81.5 62 L 83 62.5 L 82 60.5 L 83.5 56 L 84.5 62 L 86 58.5 L 85 56.5 L 87 57.5 L 88 61 L 86 61.5 L 89 62.5 L 83 63.5 L 83.5 66 L 88.5 65 L 88.5 66 L 87 66.5 L 88 67.5 L 88 76.5 Q 86.3 79.8 79.5 78 L 78 77.5 Q 77.3 79.8 79.5 79 L 79.5 80 Q 75.3 81.3 77 76.5 Q 79.3 75.3 76.5 74 Q 73.8 73.4 75 79.5 L 74 79.5 L 73.5 73 L 72 80.5 L 72.5 82 L 56.5 82 L 56 80.5 L 54.5 76 L 53.5 79 L 53 75 Q 57.9 73.2 56 79.5 L 57.5 81 L 70.5 81 L 72 79.5 L 72 72 L 76 71.5 L 71.5 71 L 70 72.5 L 70 80 L 58.5 80 L 57 78.5 L 58 75.5 Q 57.3 72.3 52.5 73 L 50 76.5 L 50.5 78 L 48.5 78 Q 41.7 79.8 40 76.5 L 40 67.5 L 41.5 66 L 45 65.5 L 43 65 Q 44.3 62 40.5 63 L 39 63.5 Q 38.1 60.1 43.5 62 L 45 62.5 L 44 58.5 L 45 58.5 L 46.5 61 L 47 57 Q 52 58.3 53.5 55 Z M 58 61 L 56 63 L 56 71 L 53 71 L 52 65 Q 52 62 46 63 L 47 65 L 51 64 L 51 71 L 53 72 Q 57 73 58 71 Q 60 65 57 64 Q 58 61 63 62 L 64 63 Q 64 59 58 61 Z M 46 66 Q 46 69 42 68 L 43 77 L 48 76 L 49 70 L 48 69 L 46 66 Z M 80 68 L 81 77 L 85 76 L 86 77 L 86 68 L 80 68 Z M 51 71 L 50 74 L 51 74 L 51 71 Z M 61 78 L 61 79 L 68 79 L 61 78 Z "></path><path fill="rgb(171,157,222)" stroke="rgb(171,157,222)" stroke-width="1" opacity="1" d="M 74.5 55 L 73.5 57 L 74.5 55 Z "></path><path fill="rgb(171,157,222)" stroke="rgb(171,157,222)" stroke-width="1" opacity="1" d="M 40.5 57 L 43 58.5 Q 44.4 63.1 38.5 61 L 39.5 59 L 41 58.5 L 40.5 57 Z "></path><path fill="rgb(171,157,222)" stroke="rgb(171,157,222)" stroke-width="1" opacity="1" d="M 64.5 57 L 68 57.5 L 64.5 58 L 64.5 57 Z "></path><path fill="rgb(171,157,222)" stroke="rgb(171,157,222)" stroke-width="1" opacity="1" d="M 34.5 62 L 35 73.5 L 34 73.5 L 34.5 62 Z "></path><path fill="rgb(171,157,222)" stroke="rgb(171,157,222)" stroke-width="1" opacity="1" d="M 93.5 62 L 94 72.5 L 93 72.5 L 93.5 62 Z "></path><path fill="rgb(171,157,222)" stroke="rgb(171,157,222)" stroke-width="1" opacity="1" d="M 31.5 74 L 32 86 L 45 86.5 L 32.5 87 L 31 85.5 L 31.5 74 Z "></path><path fill="rgb(171,157,222)" stroke="rgb(171,157,222)" stroke-width="1" opacity="1" d="M 96.5 74 L 97 85.5 Q 95.3 88.8 88.5 87 L 88.5 86 L 96 86 L 96.5 74 Z "></path><path fill="rgb(171,157,222)" stroke="rgb(171,157,222)" stroke-width="1" opacity="1" d="M 37.5 83 L 47 83.5 L 37.5 84 L 37.5 83 Z "></path><path fill="rgb(171,157,222)" stroke="rgb(171,157,222)" stroke-width="1" opacity="1" d="M 81.5 83 L 89 83.5 L 81.5 84 L 81.5 83 Z "></path><path fill="rgb(171,157,222)" stroke="rgb(171,157,222)" stroke-width="1" opacity="1" d="M 33.5 102 L 41 102.5 L 33.5 103 L 33.5 102 Z "></path><path fill="rgb(171,157,222)" stroke="rgb(171,157,222)" stroke-width="1" opacity="1" d="M 61.5 102 L 66 102.5 L 61 103 L 61.5 113 L 62.5 110 L 63 112.5 Q 61.5 115.5 60 112.5 L 60 103.5 L 61.5 102 Z "></path><path fill="rgb(171,157,222)" stroke="rgb(171,157,222)" stroke-width="1" opacity="1" d="M 50.5 103 L 51 112.5 L 52 113.5 L 50 112.5 L 50.5 103 Z "></path><path fill="rgb(171,157,222)" stroke="rgb(171,157,222)" stroke-width="1" opacity="1" d="M 87.5 103 L 88 112.5 L 89 113.5 L 87 112.5 L 87.5 103 Z "></path><path fill="rgb(171,157,222)" stroke="rgb(171,157,222)" stroke-width="1" opacity="1" d="M 33.5 104 L 36 104.5 L 33.5 105 L 33.5 104 Z "></path><path fill="rgb(171,157,222)" stroke="rgb(171,157,222)" stroke-width="1" opacity="1" d="M 39.5 104 L 42 104.5 L 39 105 L 39 112.5 L 37.5 114 L 38 112.5 Q 36.3 105.8 39.5 104 Z "></path><path fill="rgb(171,157,222)" stroke="rgb(171,157,222)" stroke-width="1" opacity="1" d="M 63.5 104 L 66 104.5 L 63 105 L 62.5 108 L 62 105.5 L 63.5 104 Z "></path><path fill="rgb(171,157,222)" stroke="rgb(171,157,222)" stroke-width="1" opacity="1" d="M 68.5 105 L 69 107.5 L 68 107.5 L 68.5 105 Z "></path><path fill="rgb(171,157,222)" stroke="rgb(171,157,222)" stroke-width="1" opacity="1" d="M 71.5 105 L 70.5 107 L 71.5 105 Z "></path><path fill="rgb(171,157,222)" stroke="rgb(171,157,222)" stroke-width="1" opacity="1" d="M 75.5 105 L 76.5 107 L 75.5 105 Z "></path><path fill="rgb(171,157,222)" stroke="rgb(171,157,222)" stroke-width="1" opacity="1" d="M 42.5 107 L 43.5 109 L 42.5 107 Z "></path><path fill="rgb(171,157,222)" stroke="rgb(171,157,222)" stroke-width="1" opacity="1" d="M 56.5 110 L 55.5 112 L 56.5 110 Z "></path><path fill="rgb(171,157,222)" stroke="rgb(171,157,222)" stroke-width="1" opacity="1" d="M 58.5 111 L 57.5 113 L 58.5 111 Z "></path><path fill="rgb(247,247,246)" stroke="rgb(247,247,246)" stroke-width="1" opacity="1" d="M 64.5 11 L 67 11.5 L 63.5 13 L 64.5 11 Z "></path><path fill="rgb(247,247,246)" stroke="rgb(247,247,246)" stroke-width="1" opacity="1" d="M 68.5 11 L 75 12.5 L 69.5 13 L 68.5 11 Z "></path><path fill="rgb(247,247,246)" stroke="rgb(247,247,246)" stroke-width="1" opacity="1" d="M 57.5 12 L 62 12.5 L 57.5 13 L 57.5 12 Z "></path><path fill="rgb(247,247,246)" stroke="rgb(247,247,246)" stroke-width="1" opacity="1" d="M 31.5 19 L 30.5 21 L 31.5 19 Z "></path><path fill="rgb(247,247,246)" stroke="rgb(247,247,246)" stroke-width="1" opacity="1" d="M 99.5 22 Q 101.8 21.3 101 23.5 L 101.5 25 Q 99.3 25.8 100 23.5 L 99.5 22 Z "></path><path fill="rgb(247,247,246)" stroke="rgb(247,247,246)" stroke-width="1" opacity="1" d="M 108.5 37 L 109 38.5 L 109 40.5 Q 108.3 42.8 110.5 42 L 113 40.5 L 112 44 L 110 44.5 L 111 50 Q 113.7 48.9 113 51.5 L 112 54.5 L 113 57.5 L 113 59.5 L 112 63.5 L 112.5 65 L 111 65.5 L 113 66 L 112.5 69 L 111.5 67 L 110 75.5 L 111 77.5 L 109 81.5 L 106 90 Q 103.3 88.9 104 91.5 L 99.5 96 L 83.5 102 L 81.5 102 L 75.5 103 L 75.5 102 L 77 101.5 L 76 99.5 L 77.5 100 L 80.5 98 L 82.5 99 L 82.5 97 L 85.5 98 L 92 95 Q 90.9 97.7 93.5 97 L 93 95.5 L 94.5 93 L 101 88.5 L 102.5 86 L 104.5 87 L 106 84.5 L 104.5 85 L 103 84.5 L 107 77.5 L 110 60.5 L 109 59.5 Q 110.5 52 108 48.5 L 109 44.5 L 107 38.5 L 108.5 37 Z M 111 55 L 110 58 L 111 58 L 111 55 Z M 103 88 L 97 95 L 103 90 L 103 88 Z "></path><path fill="rgb(247,247,246)" stroke="rgb(247,247,246)" stroke-width="1" opacity="1" d="M 18.5 42 L 19 45.5 L 18 48.5 L 19 50.5 L 19 64.5 L 20 65.5 L 21 77.5 Q 24.8 87.2 32.5 93 L 37.5 96 L 43 97 L 42.5 100 L 40.5 100 L 37.5 99 L 35.5 99 Q 27.5 96.5 23 90.5 Q 23.7 87.9 21 89 L 21 86.5 L 19 84.5 L 16.5 74 L 15 74.5 L 16 71.5 L 15 68.5 L 15 66.5 L 16 63.5 L 15 58.5 L 16 54.5 L 16 52.5 L 15 49.5 L 17 49.5 Q 16.1 44.1 18.5 42 Z M 18 67 L 16 70 L 19 75 L 20 73 L 18 67 Z M 20 75 L 19 79 L 20 79 L 20 75 Z M 22 80 L 20 82 L 22 83 L 22 80 Z M 24 84 Q 22 87 25 86 L 24 84 Z M 29 91 L 30 93 Q 31 90 29 91 Z "></path><path fill="rgb(247,247,246)" stroke="rgb(247,247,246)" stroke-width="1" opacity="1" d="M 44 97 L 46 97 Q 44.9 99.7 47.5 99 L 50 98 L 51 100.5 L 47.5 103 L 44 101.5 L 44 97 Z "></path><path fill="rgb(247,247,246)" stroke="rgb(247,247,246)" stroke-width="1" opacity="1" d="M 54.5 99 L 58.5 101 L 60 100.5 Q 60.8 103.1 57.5 102 L 55.5 103 L 53 102 L 54.5 99 Z "></path><path fill="rgb(247,247,246)" stroke="rgb(247,247,246)" stroke-width="1" opacity="1" d="M 73.5 99 Q 76.2 100.3 74 101.5 L 73.5 103 L 73 101 Q 70 100 71 103 L 68 103 L 67 100.5 L 69.5 100 L 73.5 99 Z "></path><path fill="rgb(249,250,245)" stroke="rgb(249,250,245)" stroke-width="1" opacity="1" d="M 8.5 0 Q 11.1 -0.7 10 2 L 0.5 6 L 1 4.5 Q 0.2 1.5 4 3 L 4 1 L 7.5 1 L 8.5 0 Z "></path><path fill="rgb(249,250,245)" stroke="rgb(249,250,245)" stroke-width="1" opacity="1" d="M 15.5 0 L 22.5 2 Q 24.3 -0.8 30.5 1 L 33.5 2 L 44.5 0 L 49.5 1 L 51.5 1 L 64.5 1 L 65.5 2 L 66.5 1 L 77.5 1 L 79.5 1 L 86.5 0 L 92.5 2 L 94.5 1 L 98.5 2 L 100.5 1 L 102.5 1 L 125.5 1 L 127 2.5 Q 127.8 4.8 125.5 4 Q 124.7 1.2 120.5 2 L 116.5 3 L 114.5 3 Q 109 2 108 5.5 Q 107.3 7.8 109.5 7 L 112 8 L 111 10.5 L 112.5 14 L 114 13.5 L 113 15.5 L 115 19.5 L 116 27.5 L 118 29.5 L 116 29.5 L 116 32 Q 119 31 118 34 Q 114.7 32.7 116 37.5 L 117 42.5 L 116 44.5 L 118 46.5 Q 116.5 52 119 53.5 L 117 58.5 L 119 68.5 L 117.5 74 L 115.5 74 Q 113.3 73.3 114 75.5 L 113 75.5 L 114 70.5 L 113 66.5 L 114 65.5 L 114 51.5 L 115 50.5 L 113 47.5 L 114 46.5 L 114 34.5 L 112 31.5 L 113 31.5 L 113.5 33 L 114 30.5 L 109 21.5 L 111 20.5 L 108 18.5 L 110 18.5 L 108 15.5 L 105.5 15 Q 102.2 16.1 103 13.5 L 104.5 14 L 108 12.5 L 103 12 Q 104.1 9.3 101.5 10 L 99.5 11 L 97.5 10 L 94.5 11 L 91.5 10 L 84.5 12 L 84 10 L 78.5 11 Q 77.3 8.8 72.5 10 L 72.5 12 L 67.5 10 L 47.5 10 L 45 10.5 L 44.5 12 L 41.5 11 L 36.5 10 L 36 12 L 30 10 L 28.5 13 L 25 14 Q 26.3 11 22.5 12 L 19 15.5 L 20.5 17 L 24 14.5 L 18.5 22 L 17 21.5 L 16.5 23 L 15.5 21 L 18.5 19 L 18.5 18 L 14.5 20 Q 10.7 17.7 16 15.5 L 19 10 Q 21.7 11.1 21 8.5 L 24 4 Q 20.6 4.8 19.5 2 L 11 1.5 L 15.5 0 Z M 107 8 L 109 10 Q 110 7 107 8 Z M 28 10 L 29 12 Q 30 9 28 10 Z M 112 21 L 113 27 L 114 25 Q 112 23 115 22 L 112 21 Z "></path><path fill="rgb(249,250,245)" stroke="rgb(249,250,245)" stroke-width="1" opacity="1" d="M 126.5 5 L 127 7.5 L 126 7.5 L 126.5 5 Z "></path><path fill="rgb(249,250,245)" stroke="rgb(249,250,245)" stroke-width="1" opacity="1" d="M 48.5 11 L 57 11.5 L 48.5 12 L 48.5 11 Z "></path><path fill="rgb(249,250,245)" stroke="rgb(249,250,245)" stroke-width="1" opacity="1" d="M 59.5 11 L 62 11.5 L 59.5 12 L 59.5 11 Z "></path><path fill="rgb(249,250,245)" stroke="rgb(249,250,245)" stroke-width="1" opacity="1" d="M 80.5 11 L 83 11.5 L 80.5 12 L 80.5 11 Z "></path><path fill="rgb(249,250,245)" stroke="rgb(249,250,245)" stroke-width="1" opacity="1" d="M 13.5 23 L 14 29 Q 10.7 30.3 12 25.5 L 13.5 23 Z "></path><path fill="rgb(249,250,245)" stroke="rgb(249,250,245)" stroke-width="1" opacity="1" d="M 0.5 25 Q 3.1 24.2 2 27.5 L 1 27.5 L 0.5 25 Z "></path><path fill="rgb(249,250,245)" stroke="rgb(249,250,245)" stroke-width="1" opacity="1" d="M 12.5 31 L 14 33.5 L 13.5 35 Q 15.8 34.3 15 36.5 Q 11.5 38 14 39.5 Q 15.3 44.3 13 45.5 L 14 49.5 L 14 51.5 Q 15.5 57 13 58.5 L 15 66.5 L 15 75.5 Q 11.5 77 14 78.5 L 15 82.5 L 12 80.5 Q 13.3 70.2 11 63.5 L 11 61.5 Q 12.3 56.7 10 55.5 L 11 54.5 Q 9.3 46.3 12 42.5 Q 9.7 41.2 11 36.5 L 12 33.5 L 12.5 31 Z "></path><path fill="rgb(249,250,245)" stroke="rgb(249,250,245)" stroke-width="1" opacity="1" d="M 1.5 42 L 3 46.5 L 1 47.5 L 1.5 42 Z "></path><path fill="rgb(249,250,245)" stroke="rgb(249,250,245)" stroke-width="1" opacity="1" d="M 125.5 47 Q 127.8 46.3 127 48.5 L 125.5 47 Z "></path><path fill="rgb(249,250,245)" stroke="rgb(249,250,245)" stroke-width="1" opacity="1" d="M 1.5 57 L 2 59.5 L 1 59.5 L 1.5 57 Z "></path><path fill="rgb(249,250,245)" stroke="rgb(249,250,245)" stroke-width="1" opacity="1" d="M 16.5 76 L 17 79.5 L 16 79.5 L 16.5 76 Z "></path><path fill="rgb(249,250,245)" stroke="rgb(249,250,245)" stroke-width="1" opacity="1" d="M 125.5 76 Q 127.8 75.3 127 77.5 L 125.5 76 Z "></path><path fill="rgb(249,250,245)" stroke="rgb(249,250,245)" stroke-width="1" opacity="1" d="M 115.5 80 L 116 85 Q 113 86.3 114 82.5 L 115.5 80 Z "></path><path fill="rgb(249,250,245)" stroke="rgb(249,250,245)" stroke-width="1" opacity="1" d="M 1.5 82 L 2 84.5 L 1 84.5 L 1.5 82 Z "></path><path fill="rgb(249,250,245)" stroke="rgb(249,250,245)" stroke-width="1" opacity="1" d="M 110.5 82 Q 113.3 83.3 111 84.5 L 110.5 86 L 109 83.5 L 110.5 82 Z "></path><path fill="rgb(249,250,245)" stroke="rgb(249,250,245)" stroke-width="1" opacity="1" d="M 18.5 83 L 20 85.5 L 18 86 L 18.5 83 Z "></path><path fill="rgb(249,250,245)" stroke="rgb(249,250,245)" stroke-width="1" opacity="1" d="M 107.5 87 L 108 88.5 L 106 89.5 L 107.5 87 Z "></path><path fill="rgb(249,250,245)" stroke="rgb(249,250,245)" stroke-width="1" opacity="1" d="M 114.5 87 L 117 87.5 L 118 91.5 L 115.5 93 Q 112.6 91.6 114.5 87 Z "></path><path fill="rgb(249,250,245)" stroke="rgb(249,250,245)" stroke-width="1" opacity="1" d="M 15.5 88 L 16 91.5 L 15 91.5 L 15.5 88 Z "></path><path fill="rgb(249,250,245)" stroke="rgb(249,250,245)" stroke-width="1" opacity="1" d="M 18.5 89 L 20.5 90 Q 21.8 87.8 23 90.5 L 19.5 90 L 18.5 89 Z "></path><path fill="rgb(249,250,245)" stroke="rgb(249,250,245)" stroke-width="1" opacity="1" d="M 23.5 92 L 28.5 99 L 31.5 98 L 33 101.5 L 30 102.5 L 31.5 106 L 33 105.5 L 32.5 107 Q 35.1 106.3 34 109 L 19 103 L 17.5 100 L 15 100 L 13 96 L 16 95.5 L 15 93.5 L 16 93.5 L 17 95.5 L 16 98 L 19 98.5 L 18.5 100 Q 20.8 99.3 20 101.5 L 21 101.5 L 20 98.5 L 22.5 98 L 25.5 99 L 25.5 98 Q 23.3 98.8 24 96.5 L 23.5 95 L 25 94.5 L 23.5 92 Z M 27 100 L 27 101 L 29 101 L 27 100 Z "></path><path fill="rgb(249,250,245)" stroke="rgb(249,250,245)" stroke-width="1" opacity="1" d="M 104.5 92 L 105.5 94 L 104.5 92 Z "></path><path fill="rgb(249,250,245)" stroke="rgb(249,250,245)" stroke-width="1" opacity="1" d="M 97.5 97 L 96.5 99 L 95 98.5 L 97.5 97 Z "></path><path fill="rgb(249,250,245)" stroke="rgb(249,250,245)" stroke-width="1" opacity="1" d="M 108.5 98 L 109 100 Q 111.7 101.1 111 98.5 L 112 98.5 L 112 101 L 110 101 Q 111.1 103.7 108.5 103 L 95.5 109 L 97 106.5 L 94.5 103 L 91 101.5 Q 90.1 98.1 95.5 100 L 102.5 103 L 104.5 100 Q 109 101.3 108.5 98 Z M 105 102 L 103 104 L 106 104 Q 107 101 105 102 Z "></path><path fill="rgb(249,250,245)" stroke="rgb(249,250,245)" stroke-width="1" opacity="1" d="M 74.5 113 L 75.5 115 Q 72.7 115.7 74.5 113 Z "></path><path fill="rgb(249,250,245)" stroke="rgb(249,250,245)" stroke-width="1" opacity="1" d="M 40.5 114 Q 41.3 116.8 45.5 116 L 47.5 116 Q 49.8 116.8 49 114.5 L 50 114.5 Q 49.5 117.5 56.5 116 Q 58.5 112 60.5 116 L 64.5 114 Q 65.6 116.8 69 116 L 69.5 114 Q 71 117.5 77.5 116 L 80.5 114 L 80.5 116 L 86.5 115 L 89.5 116 L 92.5 114 L 90.5 119 L 88.5 119 Q 82.3 120.7 80.5 118 L 73.5 120 L 67.5 118 L 65.5 119 L 63.5 119 L 59.5 120 L 56.5 119 L 53.5 120 L 52.5 119 Q 43.3 119.8 38 118 L 40.5 114 Z "></path><path fill="rgb(247,248,243)" stroke="rgb(247,248,243)" stroke-width="1" opacity="1" d="M 91.5 102 L 92.5 104 L 91.5 102 Z "></path><path fill="rgb(247,248,243)" stroke="rgb(247,248,243)" stroke-width="1" opacity="1" d="M 57.5 114 L 56.5 116 L 57.5 114 Z "></path><path fill="rgb(247,248,243)" stroke="rgb(247,248,243)" stroke-width="1" opacity="1" d="M 85.5 114 L 84.5 116 L 85.5 114 Z "></path></svg>